<svg version="1.1" id="Layer_1" xmlns="http://www.w3.org/2000/svg" xmlns:xlink="http://www.w3.org/1999/xlink" x="0px" y="0px"
	 width="100%" viewBox="0 0 512 512" enable-background="new 0 0 512 512" xml:space="preserve">
<path fill="#FEEFCD" opacity="1.000000" stroke="none" 
	d="
M513.000000,105.000000 
	C513.000000,216.022018 513.000000,327.044037 512.675293,438.220581 
	C509.567383,444.588226 507.408569,451.182587 503.889099,456.946075 
	C490.963959,478.112213 471.396454,487.553253 446.690308,487.606293 
	C443.248230,486.923553 440.108154,486.472931 436.574707,486.002625 
	C408.613464,478.897064 391.412598,461.852020 385.924194,433.597412 
	C384.169556,424.564453 382.318115,423.015869 372.808014,423.014984 
	C283.540283,423.006866 194.272522,423.001251 105.000107,422.526794 
	C104.994171,320.777740 105.013641,219.496780 104.939529,118.215881 
	C104.935135,112.215904 104.532600,106.327126 110.472878,102.093460 
	C132.620895,101.953896 154.306061,101.888184 176.352386,101.918640 
	C186.115707,106.387199 195.843506,108.518654 206.127335,105.851646 
	C210.416061,104.739403 214.597809,103.214622 219.180023,101.947037 
	C221.079239,103.229324 222.768204,104.299721 224.152161,105.676674 
	C238.051453,119.505585 251.886780,133.398727 265.771820,147.242004 
	C270.295471,151.752014 274.069489,152.135986 277.904968,148.637863 
	C281.884186,145.008652 281.880432,140.698715 277.432098,136.070068 
	C270.985718,129.362366 264.267273,122.917023 257.746643,116.279419 
	C253.106781,111.556305 248.601639,106.700821 244.500916,101.948341 
	C327.335266,101.994583 409.705048,101.992073 492.074829,102.007729 
	C499.183899,102.009079 506.459869,100.967003 513.000000,105.000000 
M357.199524,270.564941 
	C363.852448,256.033630 361.282471,240.159119 350.123871,228.586197 
	C338.198059,216.217606 322.839661,210.553268 306.501892,207.166809 
	C301.008087,206.028061 296.940887,209.553802 296.914001,215.189789 
	C296.800507,238.981171 296.813599,262.773590 296.898376,286.565186 
	C296.917633,291.962189 299.936646,294.964447 305.287994,294.938110 
	C309.426544,294.917786 313.623718,294.656677 317.688385,293.917297 
	C333.427277,291.054413 348.048584,286.103973 357.199524,270.564941 
M243.832382,292.525269 
	C267.777130,279.666138 272.192322,242.438660 252.054901,223.195709 
	C240.491577,212.146042 224.556076,212.218628 213.098404,223.373230 
	C197.108719,238.939957 196.415268,269.026794 211.825623,285.270569 
	C220.552551,294.469452 230.941803,297.588959 243.832382,292.525269 
M422.535248,218.836456 
	C410.326599,212.348969 398.399719,214.127319 388.763916,223.871887 
	C372.896667,239.918228 372.931976,270.209686 388.836487,286.194092 
	C400.650482,298.067322 417.666199,297.927887 429.282501,285.862488 
	C447.140625,267.313965 444.106476,234.120834 422.535248,218.836456 
M312.500000,319.025818 
	C291.182129,319.025818 269.864258,319.025146 248.546371,319.026123 
	C238.220535,319.026581 227.893799,318.949585 217.569214,319.064087 
	C211.863632,319.127380 208.574142,322.557007 208.877472,327.704590 
	C209.163422,332.557556 212.452850,335.019287 218.837601,335.021332 
	C261.972961,335.035156 305.108337,335.029541 348.243713,335.029602 
	C357.403717,335.029602 366.576111,335.289825 375.715973,334.859894 
	C378.339630,334.736450 381.712128,333.236176 383.190948,331.226410 
	C384.511322,329.432037 384.794922,325.222198 383.551392,323.593445 
	C381.823639,321.330414 378.263794,319.270996 375.451691,319.222015 
	C354.806244,318.862640 334.151672,319.026733 312.500000,319.025818 
M137.144257,225.820007 
	C138.869949,229.631119 141.939331,231.083496 145.985870,231.021622 
	C150.747955,230.948807 155.512024,231.004562 160.709137,231.004562 
	C160.709137,235.620911 160.707779,239.585602 160.709366,243.550308 
	C160.715103,257.865845 160.650742,272.181976 160.765717,286.496643 
	C160.807510,291.699829 164.014160,294.952850 168.588440,294.992950 
	C172.825851,295.030090 176.132095,291.830994 176.665421,287.077423 
	C176.813156,285.760590 176.744415,284.417480 176.744781,283.086426 
	C176.749054,267.605591 176.739960,252.124725 176.757980,236.643921 
	C176.760025,234.883347 176.905533,233.122940 176.969894,231.688339 
	C177.614304,231.310898 177.752716,231.159637 177.893143,231.157761 
	C182.384750,231.097382 186.877563,231.095718 191.368057,230.992142 
	C196.999817,230.862228 200.830109,227.430847 200.680634,222.748428 
	C200.534180,218.160843 196.919983,215.004913 191.464325,214.984314 
	C176.316620,214.927109 161.168350,214.914963 146.020767,214.985825 
	C139.229446,215.017593 136.651474,217.987305 137.144257,225.820007 
M251.500168,359.058807 
	C245.675034,359.059601 239.849075,358.999603 234.024994,359.078094 
	C228.123657,359.157623 224.813232,362.189117 224.868439,367.278107 
	C224.921082,372.129395 228.134705,374.989929 233.878418,375.043945 
	C242.199280,375.122192 250.521408,375.067230 258.842987,375.067322 
	C284.140594,375.067596 309.438904,375.152374 334.734772,374.942993 
	C337.452911,374.920502 341.033875,373.920837 342.616669,372.034058 
	C344.149261,370.207001 344.520660,366.383301 343.789398,363.914185 
	C342.627838,359.991974 338.878113,359.022461 334.883667,359.030579 
	C307.422577,359.086395 279.961273,359.059296 251.500168,359.058807 
z"/>
<path fill="#000000" opacity="1.000000" stroke="none" 
	d="
M513.000000,104.531342 
	C506.459869,100.967003 499.183899,102.009079 492.074829,102.007729 
	C409.705048,101.992073 327.335266,101.994583 244.388031,101.633751 
	C239.538498,97.116020 235.266388,92.956818 231.151428,88.506241 
	C231.908813,86.829613 232.509064,85.444359 233.424438,83.860817 
	C240.509094,67.039215 237.295990,50.030102 225.287537,37.927128 
	C214.468277,27.022709 196.520889,22.076180 179.506866,29.923065 
	C164.051758,37.640278 156.194931,50.131268 156.107681,66.859138 
	C156.028625,82.012886 163.084869,93.736763 175.991211,101.822464 
	C154.306061,101.888184 132.620895,101.953896 110.009598,102.012924 
	C97.750839,102.001595 86.418159,101.972122 75.085617,102.000946 
	C67.355934,102.020615 63.998219,105.381363 63.998169,112.980690 
	C63.997498,210.308685 63.999748,307.636688 63.993420,404.964691 
	C63.993031,410.962677 63.927124,416.960632 63.430176,422.977295 
	C42.327625,424.133881 21.536058,420.616455 1.000000,425.000000 
	C1.000000,283.726074 1.000000,142.452164 1.000000,1.089123 
	C171.666641,1.089123 342.333313,1.089123 513.000000,1.089123 
	C513.000000,35.425095 513.000000,69.743889 513.000000,104.531342 
z"/>
<path fill="#FDE09B" opacity="1.000000" stroke="none" 
	d="
M1.000000,425.466858 
	C21.536058,420.616455 42.327625,424.133881 63.905411,422.989929 
	C78.229713,422.987579 91.617249,422.991272 105.004784,422.994934 
	C194.272522,423.001251 283.540283,423.006866 372.808014,423.014984 
	C382.318115,423.015869 384.169556,424.564453 385.924194,433.597412 
	C391.412598,461.852020 408.613464,478.897064 436.270599,486.280823 
	C434.217468,486.719147 432.075104,486.982086 429.932678,486.982452 
	C310.059143,487.002625 190.185593,486.996582 70.312065,487.035736 
	C68.216217,487.036438 66.120529,487.554932 63.594646,487.908081 
	C59.021755,487.330353 54.827667,486.904266 50.744667,485.984863 
	C26.571594,480.541687 10.553678,466.093292 2.930349,442.423096 
	C2.731464,441.805542 1.662948,441.468079 0.999995,441.000000 
	C1.000000,435.977905 1.000000,430.955811 1.000000,425.466858 
z"/>
<path fill="#000000" opacity="1.000000" stroke="none" 
	d="
M0.999995,441.468689 
	C1.662948,441.468079 2.731464,441.805542 2.930349,442.423096 
	C10.553678,466.093292 26.571594,480.541687 50.744667,485.984863 
	C54.827667,486.904266 59.021755,487.330353 64.056259,487.983215 
	C191.301743,487.988586 317.655487,487.995483 444.009216,487.994934 
	C445.003601,487.994904 445.997955,487.892853 446.992340,487.838440 
	C471.396454,487.553253 490.963959,478.112213 503.889099,456.946075 
	C507.408569,451.182587 509.567383,444.588226 512.675293,438.687561 
	C513.000000,463.650238 513.000000,488.300507 513.000000,512.947937 
	C342.333313,512.945129 171.666656,512.945129 1.000000,512.945129 
	C1.000000,489.239288 1.000000,465.588287 0.999995,441.468689 
z"/>
<path fill="#FDE8B4" opacity="1.000000" stroke="none" 
	d="
M105.000107,422.526794 
	C91.617249,422.991272 78.229713,422.987579 64.366943,422.971252 
	C63.927124,416.960632 63.993031,410.962677 63.993420,404.964691 
	C63.999748,307.636688 63.997498,210.308685 63.998169,112.980690 
	C63.998219,105.381363 67.355934,102.020615 75.085617,102.000946 
	C86.418159,101.972122 97.750839,102.001595 109.546738,102.086777 
	C104.532600,106.327126 104.935135,112.215904 104.939529,118.215881 
	C105.013641,219.496780 104.994171,320.777740 105.000107,422.526794 
z"/>
<path fill="#715776" opacity="1.000000" stroke="none" 
	d="
M357.043701,270.905212 
	C348.048584,286.103973 333.427277,291.054413 317.688385,293.917297 
	C313.623718,294.656677 309.426544,294.917786 305.287994,294.938110 
	C299.936646,294.964447 296.917633,291.962189 296.898376,286.565186 
	C296.813599,262.773590 296.800507,238.981171 296.914001,215.189789 
	C296.940887,209.553802 301.008087,206.028061 306.501892,207.166809 
	C322.839661,210.553268 338.198059,216.217606 350.123871,228.586197 
	C361.282471,240.159119 363.852448,256.033630 357.043701,270.905212 
M323.924194,229.513535 
	C320.469421,228.169678 317.014648,226.825821 312.871490,225.214203 
	C312.871490,234.902557 312.871490,243.526154 312.871490,252.149734 
	C312.871490,260.727203 312.871490,269.304688 312.871490,278.218262 
	C322.138794,277.124207 330.313416,275.094940 337.224152,269.767731 
	C343.575470,264.871765 346.107697,258.345520 344.169983,250.371994 
	C341.595245,239.777313 333.552551,234.377380 323.924194,229.513535 
z"/>
<path fill="#715776" opacity="1.000000" stroke="none" 
	d="
M243.485474,292.694397 
	C230.941803,297.588959 220.552551,294.469452 211.825623,285.270569 
	C196.415268,269.026794 197.108719,238.939957 213.098404,223.373230 
	C224.556076,212.218628 240.491577,212.146042 252.054901,223.195709 
	C272.192322,242.438660 267.777130,279.666138 243.485474,292.694397 
M247.941238,247.838989 
	C246.705734,244.772644 245.863190,241.466507 244.164474,238.682831 
	C237.893082,228.405792 227.263885,228.321686 221.177643,238.679489 
	C214.967682,249.247803 214.913300,260.320618 220.979416,270.970093 
	C227.153885,281.809784 238.225769,281.652588 244.544418,270.819885 
	C248.550079,263.952637 249.597626,256.482758 247.941238,247.838989 
z"/>
<path fill="#715776" opacity="1.000000" stroke="none" 
	d="
M422.861145,219.007263 
	C444.106476,234.120834 447.140625,267.313965 429.282501,285.862488 
	C417.666199,297.927887 400.650482,298.067322 388.836487,286.194092 
	C372.931976,270.209686 372.896667,239.918228 388.763916,223.871887 
	C398.399719,214.127319 410.326599,212.348969 422.861145,219.007263 
M412.436951,278.297211 
	C414.957916,276.213898 418.054932,274.543396 419.896637,271.973328 
	C426.609589,262.605621 426.582855,248.149292 420.307495,238.437943 
	C413.911194,228.539413 403.573639,228.357147 397.503967,238.477463 
	C390.981384,249.352936 391.075836,260.702545 397.571533,271.612854 
	C400.615601,276.725677 405.097198,280.120087 412.436951,278.297211 
z"/>
<path fill="#F79336" opacity="1.000000" stroke="none" 
	d="
M313.000000,319.025818 
	C334.151672,319.026733 354.806244,318.862640 375.451691,319.222015 
	C378.263794,319.270996 381.823639,321.330414 383.551392,323.593445 
	C384.794922,325.222198 384.511322,329.432037 383.190948,331.226410 
	C381.712128,333.236176 378.339630,334.736450 375.715973,334.859894 
	C366.576111,335.289825 357.403717,335.029602 348.243713,335.029602 
	C305.108337,335.029541 261.972961,335.035156 218.837601,335.021332 
	C212.452850,335.019287 209.163422,332.557556 208.877472,327.704590 
	C208.574142,322.557007 211.863632,319.127380 217.569214,319.064087 
	C227.893799,318.949585 238.220535,319.026581 248.546371,319.026123 
	C269.864258,319.025146 291.182129,319.025818 313.000000,319.025818 
z"/>
<path fill="#5D2CBF" opacity="1.000000" stroke="none" 
	d="
M176.352386,101.918633 
	C163.084869,93.736763 156.028625,82.012886 156.107681,66.859138 
	C156.194931,50.131268 164.051758,37.640278 179.500122,30.310371 
	C178.888382,36.319725 177.408630,41.976803 177.070023,47.701382 
	C175.733353,70.299973 199.782471,90.952873 222.895187,86.073418 
	C226.290329,85.356644 229.704132,84.728340 233.109299,84.059105 
	C232.509064,85.444359 231.908813,86.829613 230.844147,88.659729 
	C226.529205,93.362190 222.678696,97.619804 218.828201,101.877419 
	C214.597809,103.214622 210.416061,104.739403 206.127335,105.851646 
	C195.843506,108.518654 186.115707,106.387199 176.352386,101.918633 
z"/>
<path fill="#715776" opacity="1.000000" stroke="none" 
	d="
M137.050842,225.419037 
	C136.651474,217.987305 139.229446,215.017593 146.020767,214.985825 
	C161.168350,214.914963 176.316620,214.927109 191.464325,214.984314 
	C196.919983,215.004913 200.534180,218.160843 200.680634,222.748428 
	C200.830109,227.430847 196.999817,230.862228 191.368057,230.992142 
	C186.877563,231.095718 182.384750,231.097382 177.893143,231.157761 
	C177.752716,231.159637 177.614304,231.310898 176.969894,231.688339 
	C176.905533,233.122940 176.760025,234.883347 176.757980,236.643921 
	C176.739960,252.124725 176.749054,267.605591 176.744781,283.086426 
	C176.744415,284.417480 176.813156,285.760590 176.665421,287.077423 
	C176.132095,291.830994 172.825851,295.030090 168.588440,294.992950 
	C164.014160,294.952850 160.807510,291.699829 160.765717,286.496643 
	C160.650742,272.181976 160.715103,257.865845 160.709366,243.550308 
	C160.707779,239.585602 160.709137,235.620911 160.709137,231.004562 
	C155.512024,231.004562 150.747955,230.948807 145.985870,231.021622 
	C141.939331,231.083496 138.869949,229.631119 137.050842,225.419037 
z"/>
<path fill="#F79337" opacity="1.000000" stroke="none" 
	d="
M252.000122,359.058838 
	C279.961273,359.059296 307.422577,359.086395 334.883667,359.030579 
	C338.878113,359.022461 342.627838,359.991974 343.789398,363.914185 
	C344.520660,366.383301 344.149261,370.207001 342.616669,372.034058 
	C341.033875,373.920837 337.452911,374.920502 334.734772,374.942993 
	C309.438904,375.152374 284.140594,375.067596 258.842987,375.067322 
	C250.521408,375.067230 242.199280,375.122192 233.878418,375.043945 
	C228.134705,374.989929 224.921082,372.129395 224.868439,367.278107 
	C224.813232,362.189117 228.123657,359.157623 234.024994,359.078094 
	C239.849075,358.999603 245.675034,359.059601 252.000122,359.058838 
z"/>
<path fill="#CAC0CB" opacity="1.000000" stroke="none" 
	d="
M219.180023,101.947037 
	C222.678696,97.619804 226.529205,93.362190 230.686981,88.951096 
	C235.266388,92.956818 239.538498,97.116020 243.923492,101.589821 
	C248.601639,106.700821 253.106781,111.556305 257.746643,116.279419 
	C264.267273,122.917023 270.985718,129.362366 277.432098,136.070068 
	C281.880432,140.698715 281.884186,145.008652 277.904968,148.637863 
	C274.069489,152.135986 270.295471,151.752014 265.771820,147.242004 
	C251.886780,133.398727 238.051453,119.505585 224.152161,105.676674 
	C222.768204,104.299721 221.079239,103.229324 219.180023,101.947037 
z"/>
<path fill="#FDE7AF" opacity="1.000000" stroke="none" 
	d="
M446.690308,487.606323 
	C445.997955,487.892853 445.003601,487.994904 444.009216,487.994934 
	C317.655487,487.995483 191.301743,487.988586 64.486389,487.906921 
	C66.120529,487.554932 68.216217,487.036438 70.312065,487.035736 
	C190.185593,486.996582 310.059143,487.002625 429.932678,486.982452 
	C432.075104,486.982086 434.217468,486.719147 436.663971,486.300537 
	C440.108154,486.472931 443.248230,486.923553 446.690308,487.606323 
z"/>
<path fill="#7D55CC" opacity="1.000000" stroke="none" 
	d="
M233.424438,83.860817 
	C229.704132,84.728340 226.290329,85.356644 222.895187,86.073418 
	C199.782471,90.952873 175.733353,70.299973 177.070023,47.701382 
	C177.408630,41.976803 178.888382,36.319725 179.850525,30.244318 
	C196.520889,22.076180 214.468277,27.022709 225.287537,37.927128 
	C237.295990,50.030102 240.509094,67.039215 233.424438,83.860817 
z"/>
<path fill="#FDEECC" opacity="1.000000" stroke="none" 
	d="
M324.257812,229.690125 
	C333.552551,234.377380 341.595245,239.777313 344.169983,250.371994 
	C346.107697,258.345520 343.575470,264.871765 337.224152,269.767731 
	C330.313416,275.094940 322.138794,277.124207 312.871490,278.218262 
	C312.871490,269.304688 312.871490,260.727203 312.871490,252.149734 
	C312.871490,243.526154 312.871490,234.902557 312.871490,225.214203 
	C317.014648,226.825821 320.469421,228.169678 324.257812,229.690125 
z"/>
<path fill="#FCEDCC" opacity="1.000000" stroke="none" 
	d="
M247.993332,248.254028 
	C249.597626,256.482758 248.550079,263.952637 244.544418,270.819885 
	C238.225769,281.652588 227.153885,281.809784 220.979416,270.970093 
	C214.913300,260.320618 214.967682,249.247803 221.177643,238.679489 
	C227.263885,228.321686 237.893082,228.405792 244.164474,238.682831 
	C245.863190,241.466507 246.705734,244.772644 247.993332,248.254028 
z"/>
<path fill="#FCEDCC" opacity="1.000000" stroke="none" 
	d="
M412.071899,278.450073 
	C405.097198,280.120087 400.615601,276.725677 397.571533,271.612854 
	C391.075836,260.702545 390.981384,249.352936 397.503967,238.477463 
	C403.573639,228.357147 413.911194,228.539413 420.307495,238.437943 
	C426.582855,248.149292 426.609589,262.605621 419.896637,271.973328 
	C418.054932,274.543396 414.957916,276.213898 412.071899,278.450073 
z"/>
</svg>